<svg xmlns="http://www.w3.org/2000/svg" xmlns:xlink="http://www.w3.org/1999/xlink" width="122" height="120" viewBox="0 0 122 120" fill="none">
<path    stroke="rgba(24, 20, 65, 1)" stroke-width="10"    d="M97 37C87.5 22 77 15 60.22 15C35.44 15 15 35.1472 15 60C15 84.8528 35.2472 105 60.22 105C72.7064 105 84.0073 99.9634 92.19 91.82C96.355 87.675 99.7083 82.7202 102 77.22">
</path>
<path     fill="#181441"  d="M101.601 48.769L77.5715 43.9533C75.8204 43.6023 75.3723 41.3067 76.8629 40.323L105.914 21.151C107.405 20.1673 109.339 21.482 108.973 23.2301L103.952 47.2177C103.727 48.2923 102.678 48.9847 101.601 48.769Z">
</path>
</svg>
